<?xml version="1.0" ?><svg id="Слой_1" style="enable-background:new 0 0 128 128;" version="1.1" viewBox="0 0 128 128" xml:space="preserve" xmlns="http://www.w3.org/2000/svg" xmlns:xlink="http://www.w3.org/1999/xlink"><style type="text/css">
	.st0{fill:#66CCCC;}
	.st1{fill:#E5E5E5;}
	.st2{fill:#FFFFFF;}
	.st3{fill:#FFCC33;}
	.st4{fill:#FFFFCC;}
	.st5{fill:#FF6666;}
	.st6{fill:#D65656;}
	.st7{fill:#F9AF38;}
	.st8{fill:#CC66FF;}
	.st9{fill:#9966CC;}
	.st10{fill:#FFBB33;}
	.st11{fill:#ED7E7E;}
	.st12{fill:#E56A6A;}
	.st13{fill:#C64F4F;}
	.st14{fill:#CC6633;}
</style><circle class="st0" cx="64" cy="64" r="62"/><g><g><path class="st5" d="M56.9534149,23.1339989c0,0,10.8092499,24.9476585,4.2801971,26.5134888    c-4.812603,1.1541824-4.9807243,1.8559189-6.545948,2.5331306C48.531868,54.8439903,37.0794258,31.938385,37.0794258,31.938385    l2.2350502-1.6172581l1.616539,0.7356815l1.4117775-0.7781925l0.1722145-1.9418869l2.3182869-1.2212582l1.9115982,1.458498    l1.3728867-0.1612263l0.1183624-2.8005562l2.2975349-0.8049641l1.2487869,1.15238l1.465519-0.3205643l0.7833138-1.8781872    L56.9534149,23.1339989z"/><path class="st5" d="M75.6603851,23.7251778c0,0,1.0584946,27.168087-5.5950165,26.2674866    c-4.9043503-0.6638374-5.3147964-0.0703506-7.0189857-0.004837c-6.7023163,0.2576447-9.0987854-25.2390633-9.0987854-25.2390633    l2.6685677-0.6998024l1.2412109,1.2703609l1.5976295-0.2151394l0.8626366-1.7482662l2.6030045-0.3004971l1.254982,2.0509586    l1.3383102,0.346035l1.1228714-2.568325l2.4331512,0.0801373l0.7476807,1.5259151l1.4822845,0.2309628l1.4093628-1.4679394    L75.6603851,23.7251778z"/><path class="st5" d="M95.5698166,38.2326012c0,0-16.8982468,21.2996445-21.3588867,16.2813797    c-3.2879639-3.6989975-3.9860229-3.516201-5.3215179-4.5768585c-5.2523117-4.171402,9.541954-25.0748711,9.541954-25.0748711    l2.4803543,1.2078152l0.1138992,1.7724133l1.35215,0.8777199l1.7934723-0.7642078l2.1704559,1.4680157l-0.3842468,2.3735561    l0.7897949,1.1344738l2.5251999-1.2167549l1.793602,1.6460953l-0.427002,1.644722l0.9739914,1.1409874l2.025589-0.1953278    L95.5698166,38.2326012z"/><path class="st5" d="M103.6787186,50.3259048c0,0-21.5273361,16.6072083-24.6492615,10.6629715    c-2.3011932-4.3815269-3.0227203-4.3720894-4.0637283-5.7229614c-4.0941315-5.312767,15.295723-22.0417519,15.295723-22.0417519    l2.116806,1.7692108l-0.3159714,1.7477341l1.1011887,1.1773186l1.9246826-0.3101578l1.7533951,1.9471893l-0.9441452,2.2113342    l0.493576,1.2911987l2.7438049-0.5733185l1.3447571,2.0293465l-0.8102493,1.4936333l0.6707916,1.3418427l2.0130692,0.297863    L103.6787186,50.3259048z"/><path class="st5" d="M103.3938293,74.9586029c0,0-27.1511917-1.4276352-25.6465836-7.9710693    c1.1090546-4.8231964,0.5555496-5.2861481,0.6459808-6.9891968c0.3556595-6.6978264,25.9646835-6.7552452,25.9646835-6.7552452    l0.4531097,2.7213364l-1.3784332,1.1199799l0.068306,1.6105995l1.6621628,1.0187263l0.0614624,2.6195755l-2.1570206,1.0623894    l-0.4668427,1.3011017l2.4550171,1.3527832l-0.3020554,2.415657l-1.5878372,0.6051712l-0.3654022,1.4549866l1.3330688,1.5375671    L103.3938293,74.9586029z"/><path class="st5" d="M89.1404495,95.0970001c0,0-21.3387375-16.8488464-16.3308182-21.321106    c3.6913681-3.296524,3.506958-3.9941559,4.5645142-5.3321075c4.1592255-5.2619629,25.0969162,9.4838333,25.0969162,9.4838333    l-1.2020645,2.4831467l-1.7721481,0.1180038l-0.874588,1.3541794l0.768364,1.7917023l-1.4629822,2.173851l-2.3744431-0.3787537    l-1.132637,0.7924271l1.2226028,2.522377l-1.6419373,1.7974014l-1.6457062-0.4231873l-1.1387253,0.9766312l0.2000198,2.0251312    L89.1404495,95.0970001z"/><path class="st5" d="M78.2812195,102.1254196c0,0-15.9124031-22.0458832-9.8716583-24.9767075    c4.4526749-2.1603165,4.4662399-2.8817825,5.849617-3.8791962c5.4405975-3.9226532,21.5428696,15.9907074,21.5428696,15.9907074    l-1.8358002,2.0593262l-1.7367706-0.3715363l-1.2118301,1.0630951l0.2486343,1.9335861l-2.0020981,1.6904221l-2.1801147-1.0141678    l-1.3062744,0.4521637l0.4855423,2.7606812l-2.0711899,1.2793808l-1.4670334-0.85746l-1.3625488,0.6276703l-0.3619003,2.0025482    L78.2812195,102.1254196z"/><path class="st5" d="M57.9001312,104.9043198c0,0-3.4351997-26.9708176,3.271637-26.6567383    c4.9436493,0.231514,5.3005142-0.3956604,6.9924088-0.61026c6.6539536-0.8439865,11.2755127,24.3446274,11.2755127,24.3446274    l-2.5969772,0.9309616l-1.3477631-1.1567001l-1.5726242,0.3543091l-0.7061157,1.8171387l-2.566658,0.5274429l-1.4298859-1.9330902    l-1.3634872-0.2274246l-0.893486,2.6568375l-2.430809,0.1333923l-0.878521-1.4545212l-1.4968224-0.1001816l-1.2753067,1.5858002    L57.9001312,104.9043198z"/><path class="st5" d="M40.3760452,98.1672058c0,0,6.5481911-26.388382,12.6878052-23.6707611    c4.5255432,2.0031738,5.0850182,1.5474548,6.7400513,1.959053c6.5089874,1.6187668,1.7112427,26.7744217,1.7112427,26.7744217    l-2.7578888-0.0709229l-0.8383942-1.5657272l-1.5943527-0.2382278l-1.3153152,1.4389343l-2.5837326-0.4361801    l-0.6342735-2.3192978l-1.1890297-0.7049942l-1.793602,2.1540985l-2.3146095-0.7544708l-0.2932281-1.6737518l-1.3593521-0.6345673    l-1.7623711,1.0174561L40.3760452,98.1672058z"/><path class="st5" d="M25.2935143,78.689827c0,0,22.1607399-15.7520485,25.047657-9.6902008    c2.1279678,4.4682236,2.8493156,4.48703,3.8366623,5.8776016c3.8830833,5.4689178-16.1465721,21.4263-16.1465721,21.4263    l-2.0459518-1.8506851l0.3841286-1.7340393l-1.0542793-1.2195053l-1.9353409,0.2345963l-1.6758518-2.0143051l1.0299549-2.172699    l-0.4426727-1.3095245l-2.7641335,0.4655075l-1.2643166-2.0804138l0.868082-1.4607849l-0.6177711-1.3670654l-1.9998703-0.3764114    L25.2935143,78.689827z"/><path class="st5" d="M23.9482307,54.0544052c0,0,27.1886406-0.0575104,26.0436821,6.5583344    c-0.843956,4.8765793-0.2659836,5.3086014-0.2632599,7.0140457c0.0107079,6.7072601-25.5569477,8.1633682-25.5569477,8.1633682    l-0.6010761-2.6925201l1.315197-1.1936035l-0.1561718-1.6044617l-1.7153206-0.9264221l-0.2044563-2.6123047l2.0957737-1.1786194    l0.3950748-1.3246613l-2.5252419-1.216671l0.1696644-2.4285469l1.5524101-0.6909943l0.2853813-1.4727745l-1.4150562-1.4624557    L23.9482307,54.0544052z"/><path class="st5" d="M35.4501686,33.1448174c0,0,23.2065964,14.1661301,18.7716064,19.2070808    c-3.2690582,3.7157135-3.0022545,4.3861694-3.8915977,5.8413734c-3.4976578,5.7230911-26.0537071-6.4033165-26.0537071-6.4033165    l0.8953648-2.6094627l1.7451744-0.329834l0.7057438-1.4493523l-0.9778366-1.6865425l1.1915188-2.3337135l2.4027328,0.0910454    l1.0293522-0.9226265l-1.5164852-2.3574142l1.4143562-1.981472l1.6846027,0.2226257l1.0132866-1.1062355l-0.4416199-1.9864922    L35.4501686,33.1448174z"/></g><g><path class="st6" d="M83.8880234,43.8464851c0,0-10.2488708,22.3480873-15.2479782,18.9025269    c-3.6848679-2.5397415-4.2584991-2.2287369-5.6599808-2.8723412c-5.5118027-2.5311813,2.9747391-24.0778122,2.9747391-24.0778122    l2.4386215,0.5260544l0.4820862,1.5319977l1.3766632,0.4793549l1.4103241-1.0577354l2.2225494,0.8213654l0.1741867,2.1673088    l0.9381561,0.8260536l1.955368-1.6128922l1.929985,1.0589943l-0.020462,1.5364532l1.1013107,0.7920723l1.7367859-0.6081734    L83.8880234,43.8464851z"/><path class="st6" d="M91.6792755,70.6005707c0,0-24.2434769,4.0902634-24.2049942-1.981102    c0.0283737-4.475235-0.5513535-4.7747345-0.8071289-6.2955742c-1.0059357-5.9812164,21.5838699-11.0782127,21.5838699-11.0782127    l0.9361343,2.3124161l-0.9958344,1.2600555l0.377655,1.4079666l1.6676712,0.5715408l0.5704422,2.299778l-1.6943207,1.3626556    l-0.1556244,1.2402725l2.4332352,0.7101288l0.2094269,2.1914482l-1.2820816,0.8469696l-0.0357742,1.356102l1.4794693,1.0942841    L91.6792755,70.6005707z"/><path class="st6" d="M70.0776596,90.0339584c0,0-13.6610069-20.4414597-8.1064873-22.8930359    c4.094265-1.8070679,4.1300545-2.4586105,5.4127159-3.314846c5.0445099-3.3674583,18.9466324,15.1530571,18.9466324,15.1530571    l-1.7261353,1.8011246l-1.5573883-0.3923798l-1.129776,0.921196l0.1616364,1.7554626l-1.8643951,1.4623337l-1.9370728-0.9875793    l-1.1952057,0.3660202l0.3487625,2.5106354l-1.9134216,1.0886154l-1.2977905-0.8227081l-1.2517853,0.522789l-0.392334,1.7978821    L70.0776596,90.0339584z"/><path class="st6" d="M42.3156509,81.9058609c0,0,11.0220184-21.977066,15.8979149-18.3592606    c3.5940552,2.6667099,4.1781883,2.3758926,5.5563698,3.0679855c5.4201736,2.7218628-3.8126335,23.9594193-3.8126335,23.9594193    l-2.4187927-0.6107788l-0.4283638-1.5478745L55.75103,87.8882751l-1.4463463,1.0079041l-2.1925545-0.8983765l-0.0984993-2.1720581    l-0.9087753-0.8582764l-2.0104294,1.5437164l-1.8918762-1.1256485l0.0740356-1.5348129l-1.0730247-0.8299942l-1.7569389,0.5472336    L42.3156509,81.9058609z"/><path class="st6" d="M37.624836,55.3256378c0,0,24.5624084-1.0790825,23.7778854,4.9415016    c-0.5782776,4.437809-0.0397682,4.8063011,0.0271187,6.3470497c0.2630615,6.0595093-22.781971,8.3409729-22.781971,8.3409729    l-0.644783-2.4099579l1.1431732-1.1280823l-0.2017097-1.4437103l-1.5847702-0.7722092l-0.2834091-2.3524551l1.8489799-1.144043    l0.3069-1.2117386l-2.3274841-1.003849l0.0615425-2.200573l1.3764801-0.6829491l0.202198-1.3414154l-1.3337326-1.2678528    L37.624836,55.3256378z"/><path class="st6" d="M56.7293777,37.0484886c0,0,14.5546646,19.8150902,9.1144104,22.5107422    c-4.0100403,1.9869804-4.01688,2.6394653-5.2602806,3.5517807c-4.8901062,3.5880013-19.6004105-14.2973442-19.6004105-14.2973442    l1.6445122-1.8759537l1.5732651,0.3228874l1.0877876-0.9704247l-0.2393837-1.746563l1.7976646-1.5436287l1.9789886,0.9006462    l1.1777916-0.4187012l-0.4598351-2.4926796l1.8632317-1.1724586l1.3330193,0.7643089l1.2273521-0.5778236l0.3121643-1.8135185    L56.7293777,37.0484886z"/></g><path class="st10" d="M75.9865036,64.1307449c0,6.7539825-5.4751816,12.2291641-12.2291641,12.2291641   s-12.2291641-5.4751816-12.2291641-12.2291641c0-1.0623169,0.1354523-2.0929985,0.3900261-3.0757141   c1.3639679-5.2651711,6.1474762-9.15345,11.839138-9.15345C70.511322,51.9015808,75.9865036,57.3767624,75.9865036,64.1307449z"/><g><circle cx="57.9448395" cy="68.3182449" r="2.1875"/><circle cx="69.9448395" cy="67.3182449" r="2.1875"/><circle cx="63.9448395" cy="64.3182449" r="2.1875"/><circle cx="69.9448395" cy="60.3182449" r="2.1875"/><circle cx="62.9448395" cy="56.3182449" r="2.1875"/></g></g></svg>